<?xml version="1.0" encoding="UTF-8"?>
<svg id="Capa_1" data-name="Capa 1" xmlns="http://www.w3.org/2000/svg" viewBox="0 0 2648.34 659.19">
  <defs>
    <style>
      .cls-1 {
        fill: #0f0b16;
      }
    </style>
  </defs>
  <g>
    <path class="cls-1" d="M662.94,248.6h31.28l48.07,135,48.07-135h30.62l-61.58,163.32h-34.58l-61.9-163.32Z"/>
    <path class="cls-1" d="M852.6,248.6h29.64v27c10.54-19.1,30.95-30.95,55.32-30.95,38.53,0,63.22,23.38,63.22,72.44v94.83h-29.64v-91.87c0-33.26-14.16-50.05-41.16-50.05s-47.75,20.42-47.75,57.29v84.62h-29.64v-163.32Z"/>
    <path class="cls-1" d="M1047.2,368.46v-94.83h-28.32v-25.03h28.32v-39.84h29.63v39.84h46.1v25.03h-46.1v90.22c0,21.4,3.29,22.72,23.71,22.72h20.09v25.35h-30.95c-27.66,0-42.48-7.9-42.48-43.47Z"/>
    <path class="cls-1" d="M1244.76,366.81c0-35.23,28.32-54.66,69.81-54.66,18.44,0,33.92,3.29,43.47,6.59v-7.24c0-27.99-15.81-42.48-40.5-42.48-20.09,0-36.22,7.57-39.84,27.33h-29.63c3.95-34.9,35.23-51.7,69.48-51.7,46.43,0,70.14,26.34,70.14,66.84v49.06c0,24.37,3.95,25.68,16.46,25.68h2.3v25.68h-6.26c-21.4,0-35.89-5.27-40.17-26.34-10.21,17.12-27.66,30.29-54.99,30.29-39.84,0-60.26-23.38-60.26-49.06ZM1357.38,340.47c-10.21-2.96-25.68-5.93-40.17-5.93-29.64,0-42.48,12.84-42.48,30.62,0,15.15,12.84,26.67,34.9,26.67,28.98,0,46.43-24.7,47.75-51.37Z"/>
    <path class="cls-1" d="M1431.79,425.42h29.31c6.26,22.39,27.33,37.21,54.66,37.21,31.28,0,55.65-20.09,55.65-59.6v-23.38c-10.54,18.11-30.95,35.23-62.56,35.23-46.1,0-82.32-36.55-82.32-85.28s36.22-84.95,82.32-84.95c28.65,0,51.04,14.49,62.56,32.27v-28.32h29.64v153.44c0,54-35.89,86.27-84.95,86.27-42.48,0-77.71-22.39-84.3-62.89ZM1570.09,329.6c0-35.56-24.04-59.27-56.64-59.27s-56.64,23.71-56.64,59.27,24.37,59.6,56.64,59.6,56.64-24.7,56.64-59.6Z"/>
    <path class="cls-1" d="M1630.68,330.59c0-51.7,32.93-85.94,81.33-85.94s77.38,35.89,77.38,77.05c0,4.61,0,9.22-.33,15.15h-129.41c1.98,35.89,26.01,54.33,51.7,54.33,21.73,0,37.21-10.87,44.12-28.32h29.31c-8.56,30.29-34.57,53.01-73.1,53.01-47.42,0-81-33.92-81-85.28ZM1659.99,315.12h100.1c-1.32-28.32-21.73-45.77-48.73-45.77-25.36,0-47.75,15.81-51.37,45.77Z"/>
    <path class="cls-1" d="M1823.31,248.6h29.64v27c10.54-19.1,30.95-30.95,55.32-30.95,38.53,0,63.22,23.38,63.22,72.44v94.83h-29.64v-91.87c0-33.26-14.16-50.05-41.16-50.05s-47.75,20.42-47.75,57.29v84.62h-29.64v-163.32Z"/>
    <path class="cls-1" d="M2001.11,330.26c0-51.04,35.23-85.61,82.32-85.61,39.18,0,67.83,22.06,75.08,56.31h-30.62c-4.61-19.43-22.39-30.95-44.45-30.95-27.33,0-52.03,20.74-52.03,60.26s24.7,60.26,52.03,60.26c22.06,0,39.84-11.2,44.45-30.95h30.62c-6.91,33.26-35.89,56.31-75.08,56.31-47.09,0-82.32-34.25-82.32-85.61Z"/>
    <path class="cls-1" d="M2188.47,181.1h35.89v36.22h-35.89v-36.22ZM2191.76,248.6h29.63v163.32h-29.63v-163.32Z"/>
    <path class="cls-1" d="M2252.68,366.81c0-35.23,28.32-54.66,69.81-54.66,18.44,0,33.92,3.29,43.47,6.59v-7.24c0-27.99-15.81-42.48-40.5-42.48-20.09,0-36.22,7.57-39.84,27.33h-29.63c3.95-34.9,35.23-51.7,69.48-51.7,46.43,0,70.14,26.34,70.14,66.84v49.06c0,24.37,3.95,25.68,16.46,25.68h2.3v25.68h-6.26c-21.4,0-35.89-5.27-40.17-26.34-10.21,17.12-27.66,30.29-54.99,30.29-39.84,0-60.26-23.38-60.26-49.06ZM2365.29,340.47c-10.21-2.96-25.68-5.93-40.17-5.93-29.64,0-42.48,12.84-42.48,30.62,0,15.15,12.84,26.67,34.9,26.67,28.98,0,46.43-24.7,47.75-51.37Z"/>
    <path class="cls-1" d="M2440.7,372.74h40.17v39.18h-40.17v-39.18Z"/>
  </g>
  <path class="cls-1" d="M459.47,165.29c53.86,109.99,107.71,219.98,161.57,329.97h-123.94v-190.62l-162.76,190.62c-55.41-.6-110.82-1.19-166.22-1.79,97.12-109.39,194.23-218.79,291.35-328.18Z"/>
</svg>